<svg xmlns="http://www.w3.org/2000/svg" viewBox="0 0 824.63 824.63"><defs><style>.cls-1{fill:#3d774f;}.cls-2{fill:#ffeb65;}.cls-3{fill:#f1f3be;}.cls-4{fill:#b0b7b1;}.cls-11,.cls-12,.cls-13,.cls-14,.cls-18,.cls-4,.cls-5,.cls-7,.cls-9{stroke:#231f20;stroke-miterlimit:10;}.cls-5{fill:#8ecda1;}.cls-6{fill:#231f20;}.cls-7{fill:#808285;}.cls-8,.cls-9{fill:#414042;}.cls-10{fill:#6d6e71;}.cls-11{fill:#2a3492;}.cls-12{fill:#ee2857;}.cls-13{fill:#faad70;}.cls-14{fill:#9555a2;}.cls-15{fill:#fff;}.cls-16{fill:#08723a;}.cls-17{fill:#82d3eb;opacity:0.6;}.cls-18{fill:none;}.cls-19{fill:#0ea54a;}.cls-20{fill:#706b43;}.cls-21{fill:#fefad8;}.cls-22{fill:#163e1d;}</style></defs><g id="Layer_2" data-name="Layer 2"><g id="Layer_1-2" data-name="Layer 1"><circle class="cls-1" cx="412.31" cy="412.31" r="412.31"/><circle class="cls-2" cx="468.4" cy="385.03" r="294.83"/><circle class="cls-3" cx="241.78" cy="540.41" r="160.67"/><path class="cls-4" d="M442.36,569.43c-6.65-34.88-13.25-67.82-36.12-104.95a247.2,247.2,0,0,0-22.74-31.15,33,33,0,0,0-14.33-8.1c-15.85-4.15-29,5.74-30.83,7.17A173.93,173.93,0,0,1,275.21,447a174.06,174.06,0,0,1-63.13-14.63c-1.84-1.43-15-11.32-30.83-7.17a33,33,0,0,0-14.33,8.1,246.3,246.3,0,0,0-22.73,31.15c-22.88,37.13-29.48,70.07-36.13,104.95-8.52,44.7-13.45,72,.93,99.67,4.42,8.47,10.74,20.23,22.74,23.67,21.54,6.18,50-17.7,63.85-38.93,7-10.83,9.14-19.26,22.11-36.44l.36-.48a29.32,29.32,0,0,0,21.74-22c12.4-8,25.59-10.45,35.42-11.08,17.59,1,29,6.7,35.38,10.9a29.32,29.32,0,0,0,21.78,22.2l.36.48c13,17.18,15.08,25.61,22.12,36.44,13.8,21.23,42.3,45.11,63.84,38.93,12-3.44,18.33-15.2,22.74-23.67C455.81,641.47,450.88,614.13,442.36,569.43Z"/><rect class="cls-5" x="224.76" y="492.19" width="100.91" height="65.4" rx="3.54"/><path class="cls-6" d="M241.79,499.88h9.72v42.84h9.35V499.88h9.71v43h-4.78v4.71H246.58v-4.71h-4.79Z"/><path class="cls-6" d="M284.64,547.64v-4.71h-4.79V504.66h4.79v-4.78h24v9.71H303.7V504.8H289.56v37.92h9.36V528.65h-4.79v-4.92h14.5v23.91H303.7v-4.71h-4.57v4.71Z"/><circle class="cls-7" cx="211.21" cy="588.43" r="29.32"/><circle class="cls-8" cx="211.21" cy="588.43" r="20.24"/><circle class="cls-7" cx="339.21" cy="588.43" r="29.32"/><circle class="cls-8" cx="339.21" cy="588.43" r="20.24"/><circle class="cls-9" cx="181.32" cy="499.9" r="28.96"/><path class="cls-10" d="M200.77,493.86H187.36V480.45a3.44,3.44,0,0,0-3.44-3.44h-5.2a3.44,3.44,0,0,0-3.44,3.44v13.41H161.87a3.44,3.44,0,0,0-3.44,3.45v5.19a3.44,3.44,0,0,0,3.44,3.44h13.41v13.41a3.44,3.44,0,0,0,3.44,3.44h5.2a3.44,3.44,0,0,0,3.44-3.44V505.94h13.41a3.44,3.44,0,0,0,3.44-3.44v-5.19A3.44,3.44,0,0,0,200.77,493.86Z"/><path class="cls-8" d="M181.32,515.94c1.8,0,2.57-.36,2.78,0s-.49.84-1.39,2.4-1,2.4-1.39,2.4-.49-.84-1.39-2.4-1.59-2.05-1.39-2.4S179.52,515.94,181.32,515.94Z"/><path class="cls-8" d="M181.32,484.21c-1.8,0-2.57.36-2.78,0s.49-.84,1.39-2.4,1-2.41,1.39-2.41.49.85,1.39,2.41,1.59,2,1.39,2.4S183.12,484.21,181.32,484.21Z"/><path class="cls-8" d="M165.46,500.07c0,1.8.36,2.57,0,2.78s-.85-.49-2.41-1.39-2.4-1-2.4-1.39.84-.48,2.4-1.38,2-1.6,2.41-1.39S165.46,498.28,165.46,500.07Z"/><path class="cls-8" d="M197.18,500.07c0-1.79-.36-2.57,0-2.77s.85.49,2.41,1.39,2.4,1,2.4,1.38-.85.49-2.4,1.39-2.05,1.6-2.41,1.39S197.18,501.87,197.18,500.07Z"/><circle class="cls-11" cx="367.91" cy="479.09" r="9.34"/><circle class="cls-12" cx="367.91" cy="520.72" r="9.34"/><circle class="cls-13" cx="347.09" cy="499.9" r="9.34"/><circle class="cls-14" cx="388.72" cy="499.9" r="9.34"/><path class="cls-15" d="M366.26,483.89v-1h-1v-7.77h1v-1h4.88v2h-1v-1h-2.87v7.7h1.89V480h-1v-1h2.95v4.86h-1v-1h-.93v1Z"/><path class="cls-15" d="M345.29,497.52h1v-2.9h2v2.9h1v2.9h1v3.9h-2v-2.9h-2.86v2.9h-1v-3.9h1Zm1,0v2.86h.93v-2.86Z"/><path class="cls-15" d="M390.54,497.52v-2.9h2v9.7h-2v-4.83h-.93v2.9h-2v-2.9h-.93v4.83h-1v-9.7h2v2.9h1v1.92h.93v-1.92Z"/><path class="cls-15" d="M370.65,516.82h-2.9v2.87h1.94v1h-1.94v3.83h2.9v1h-4.87v-9.7h4.87Z"/><path class="cls-16" d="M627,484.1c-22,13.71-43.72-3.17-115.24-27.51-55.83-19-109.6-44.31-166.45-60-6.41-1.77-24.9-6.61-29.12-19.56-2.27-7,1-12.07-3-17.38-6-7.92-17.83-2.68-22.16-9.13-3.36-5,.83-12.54,9.12-30,4.23-8.9,9.42-20.16,15.13-33.4,61.69,9,127.41,16.55,196.84,22,62.35,4.9,122,7.63,178.56,8.72-10.9,35.24-23.16,73.76-36.86,115.13C642.63,466.61,638.2,477.09,627,484.1Z"/><rect class="cls-17" x="378.47" y="140.08" width="276.57" height="352.56" rx="10.91" transform="translate(41.24 691.86) rotate(-69.77)"/><path class="cls-17" d="M348.31,138.12a570.77,570.77,0,0,0-75.37,204.57,8.26,8.26,0,0,0,.24,6.19,8.09,8.09,0,0,0,4.56,4.21L303,362.38A10.79,10.79,0,0,0,316.83,356l73.51-199.51a10.79,10.79,0,0,0-6.4-13.86l-25.23-9.3A8.11,8.11,0,0,0,348.31,138.12Z"/><path class="cls-18" d="M712.73,241.19,416.4,132a18.38,18.38,0,0,0-23.6,10.89l-2.36,6.41a10.79,10.79,0,0,0-6.5-6.69l-25.23-9.3a8.11,8.11,0,0,0-10.4,4.8,570.77,570.77,0,0,0-75.37,204.57,8.26,8.26,0,0,0,.24,6.19,8.09,8.09,0,0,0,4.56,4.21L303,362.38a10.75,10.75,0,0,0,9.28-.87l-2.36,6.41a18.38,18.38,0,0,0,10.89,23.6L617.11,500.7a18.38,18.38,0,0,0,23.6-10.89l82.91-225A18.39,18.39,0,0,0,712.73,241.19Z"/><rect class="cls-19" x="358.78" y="256.26" width="276.22" height="105.48" transform="translate(35.15 668.42) rotate(-69.77)"/><path class="cls-20" d="M491.08,420.55q-.65-.65,1.3-9.26l.88-4.55q2.44-17-6.12-20.11A44.82,44.82,0,0,0,475,384.17q-9-1.28-11.17-2.09l-12.85-2.3q-10.94-2-14.75-3.4-2.1,5.72-3.87,10.75l-3.87,10.75a14.29,14.29,0,0,1-1.6,3.26c-.55.75-1,1.06-1.28.95-.62-.23-.67-1.32-.12-3.29s2.06-6.54,4.7-13.69l5.08-13.55,7-18.94a18.94,18.94,0,0,1,1.9-4c.65-1,1.13-1.4,1.45-1.29s.53.95.21,2.31-1.2,4-2.6,7.77l-2.9,7.86Q450.79,369.17,468,371a47.67,47.67,0,0,1,7.69,1.2q10.65,1.1,12.52,1.78a20.36,20.36,0,0,1,4.94,2.43,12.47,12.47,0,0,1,3.19,3.81,15,15,0,0,1,1.95,6.6,59.67,59.67,0,0,1-.34,10.63,123,123,0,0,1-2.57,16.1Q492.57,421.09,491.08,420.55Z"/><path class="cls-20" d="M526.16,314.33q-.75,1-1.23.78l-9.08-3.34q-.83-.31-5.23,9.51t-6.81,16.33c-.1.26.09.82.57,1.66s.82,1.47,1.05,1.85q2.65,3.9,5.8,8l1.16,1.54c.27.41.21,1.13-.18,2.18a11.53,11.53,0,0,1-1.4,2.74c-.54.77-1,1.1-1.3,1l-.07-.25-.07,0-2.66-3.45a73.52,73.52,0,0,0-4.84-6.49,26.69,26.69,0,0,1-3.48-4.65q-1.71-2.42-9.11-10.53l-1.85-2Q478.66,320,476.61,317a55.09,55.09,0,0,1-3.6-5.36,14.39,14.39,0,0,1-1.76-3.79,6.12,6.12,0,0,1-.08-3.39,11.65,11.65,0,0,1,2.36-4.29q1-.75,8-.53t14,1l12.45,1.67a55.71,55.71,0,0,0,9.44,2.14,56,56,0,0,1,9.51,2.15l.27.11a2.06,2.06,0,0,1,1.17,1.1c.18.66-.1,2-.82,4A9.49,9.49,0,0,1,526.16,314.33ZM512,310.56a73.92,73.92,0,0,0-12.25-2.94q-8-1.37-14.22-1.88a26.49,26.49,0,0,0-5.92-.38l-3-.21a3.67,3.67,0,0,1-.91.12l-1,.08A18.66,18.66,0,0,0,477.8,310c1.44,1.65,3.19,3.46,5.25,5.41a140.19,140.19,0,0,1,12.53,13.81l1.7,2.65c1.59,2.82,3,4.46,4.18,4.9l.41.15a192.55,192.55,0,0,0,8.32-19.58l.44-1.19a14.32,14.32,0,0,0,.58-1.35Q512.67,310.81,512,310.56Z"/><path class="cls-20" d="M557.55,233.73a1.63,1.63,0,0,1-1.82.34l-6.3-2.32a107.42,107.42,0,0,0-11.73-3.42A26.83,26.83,0,0,1,534,227.2a72.71,72.71,0,0,1-8-2.27l-3.8-1.62a37.24,37.24,0,0,0-3.81-1.63,27.35,27.35,0,0,0-3.4-1c-.74-.12-1.35-.24-1.84-.34a4.32,4.32,0,0,0-1.22-.11l.34.57q4.26,4,10.9,11.42t10.62,12a58.08,58.08,0,0,0,5,5.88,3.23,3.23,0,0,1,.84,2.21,7.68,7.68,0,0,1-.51,3.07,7,7,0,0,1-1.57,2.56,2.35,2.35,0,0,1-2.1.79q-3.84.17-22.28,3.23t-19.35,3.86q6,2.88,13.77,5.75,6.09,2.24,11.09,3.86t11.08,3.86a15.53,15.53,0,0,0,3.48.61l3.47.82a1.93,1.93,0,0,1,1.29,2.05q-2.12,5.73-5.71,4.4l-11.57-4.26-6.92-2.78c-2-.89-4.36-1.83-7-2.8q-4.56-1.68-8.1-3.21l-8.09-3.43-6.1-2.25q-.35-.12-.3-1.11a6.62,6.62,0,0,1,.42-2,3.43,3.43,0,0,1,1.35-2q2.73-1,15.54-4.37t19.65-4.86q3.91-.58,13.61-1.49l-2.19-2.38c-.69-.7-1.63-1.72-2.81-3.06a46.85,46.85,0,0,1-5-5.2l-13.62-15.34-2.95-3.1-3.08-3.6-1.71-1.76a1.83,1.83,0,0,1-.64-1.58,6.43,6.43,0,0,1,.42-2.31,4.53,4.53,0,0,1,1-1.65,1.16,1.16,0,0,1,1.26-.43l6.86,2.53a111.6,111.6,0,0,0,16.38,4,124.37,124.37,0,0,1,16.09,4.36,45.38,45.38,0,0,0,6,1.53q5.13,1.44,7.07,2.16c1,.37,1.62.81,1.79,1.33a4.87,4.87,0,0,1-.38,2.32A9.38,9.38,0,0,1,557.55,233.73Z"/><path class="cls-21" d="M491.08,418.09q-.65-.63,1.3-9.26l.88-4.55q2.44-16.95-6.12-20.11A44.82,44.82,0,0,0,475,381.71q-9-1.27-11.17-2.08l-12.85-2.31q-10.94-2-14.75-3.4-2.1,5.71-3.87,10.75l-3.87,10.75a13.88,13.88,0,0,1-1.6,3.26c-.55.75-1,1.07-1.28.95-.62-.23-.67-1.32-.12-3.29s2.06-6.54,4.7-13.69l5.08-13.55,7-18.94a18.83,18.83,0,0,1,1.9-4c.65-1,1.13-1.41,1.45-1.29s.53.94.21,2.3-1.2,4-2.6,7.78l-2.9,7.85q10.51,3.89,27.68,5.74a48,48,0,0,1,7.69,1.21c7.1.73,11.27,1.31,12.52,1.77A20.73,20.73,0,0,1,493.1,374a12.59,12.59,0,0,1,3.19,3.81,15,15,0,0,1,1.95,6.61A59.56,59.56,0,0,1,497.9,395a122.53,122.53,0,0,1-2.57,16.1Q492.57,418.65,491.08,418.09Z"/><path class="cls-21" d="M526.16,311.88c-.5.64-.91.89-1.23.78l-9.08-3.35q-.83-.3-5.23,9.51t-6.81,16.33c-.1.27.09.82.57,1.67s.82,1.46,1.05,1.84q2.65,3.9,5.8,8l1.16,1.55c.27.4.21,1.12-.18,2.17a11.53,11.53,0,0,1-1.4,2.74c-.54.77-1,1.1-1.3,1l-.07-.25-.07,0-2.66-3.44a73.72,73.72,0,0,0-4.84-6.5,27.14,27.14,0,0,1-3.48-4.64q-1.71-2.43-9.11-10.54l-1.85-2q-8.78-9.06-10.82-12.06a56.86,56.86,0,0,1-3.6-5.37,14.47,14.47,0,0,1-1.76-3.78,6.16,6.16,0,0,1-.08-3.4,11.5,11.5,0,0,1,2.36-4.28q1-.76,8-.54t14,1l12.45,1.67a54.94,54.94,0,0,0,9.44,2.13,56.75,56.75,0,0,1,9.51,2.16l.27.1a2.13,2.13,0,0,1,1.17,1.1c.18.66-.1,2-.82,4A9.81,9.81,0,0,1,526.16,311.88ZM512,308.11a72.76,72.76,0,0,0-12.25-2.95q-8-1.37-14.22-1.87a26.45,26.45,0,0,0-5.92-.39l-3-.21a3.67,3.67,0,0,1-.91.12l-1,.09a18.84,18.84,0,0,0,3.09,4.62q2.16,2.48,5.25,5.4a138.94,138.94,0,0,1,12.53,13.82l1.7,2.64q2.39,4.25,4.18,4.9l.41.15a192.55,192.55,0,0,0,8.32-19.58l.44-1.18a14.61,14.61,0,0,0,.58-1.36Q512.67,308.37,512,308.11Z"/><path class="cls-21" d="M557.55,231.28a1.65,1.65,0,0,1-1.82.33l-6.3-2.32a109.7,109.7,0,0,0-11.73-3.42,25.47,25.47,0,0,1-3.67-1.13,75.41,75.41,0,0,1-8-2.26l-3.8-1.63a37.24,37.24,0,0,0-3.81-1.63,27.35,27.35,0,0,0-3.4-1c-.74-.12-1.35-.23-1.84-.34a4.32,4.32,0,0,0-1.22-.11l.34.57q4.26,4,10.9,11.42t10.62,12a55.83,55.83,0,0,0,5,5.88,3.27,3.27,0,0,1,.84,2.21,7.65,7.65,0,0,1-.51,3.07,6.83,6.83,0,0,1-1.57,2.56,2.36,2.36,0,0,1-2.1.8q-3.84.15-22.28,3.23t-19.35,3.85q6,2.9,13.77,5.75,6.09,2.25,11.09,3.86t11.08,3.86a15,15,0,0,0,3.48.61l3.47.83a1.92,1.92,0,0,1,1.29,2q-2.12,5.73-5.71,4.4l-11.57-4.26-6.92-2.78q-3-1.33-7-2.79-4.56-1.69-8.1-3.21l-8.09-3.44-6.1-2.24c-.23-.09-.33-.46-.3-1.12a6.68,6.68,0,0,1,.42-2,3.43,3.43,0,0,1,1.35-2q2.73-1,15.54-4.36t19.65-4.87q3.91-.58,13.61-1.49l-2.19-2.38c-.69-.7-1.63-1.72-2.81-3.05a46.47,46.47,0,0,1-5-5.21l-13.62-15.34-2.95-3.1-3.08-3.6-1.71-1.75a1.85,1.85,0,0,1-.64-1.58,6.48,6.48,0,0,1,.42-2.32,4.71,4.71,0,0,1,1-1.65,1.18,1.18,0,0,1,1.26-.43l6.86,2.53a111.6,111.6,0,0,0,16.38,4,124.14,124.14,0,0,1,16.09,4.37,45.72,45.72,0,0,0,6,1.52c3.42,1,5.78,1.68,7.07,2.16,1,.37,1.62.82,1.79,1.33a4.93,4.93,0,0,1-.38,2.33A9.48,9.48,0,0,1,557.55,231.28Z"/><path class="cls-17" d="M311.46,284.25l-22.94.73c4.85-14.05,12.25-34.25,22.53-58,14.55-33.68,39.68-85.74,44.43-83.88s-11.82,57.65-27,98.83C322,259.53,315.93,274,311.46,284.25Z"/><path class="cls-16" d="M286.13,348.2c-4.05,47.78,6.34,64.33,16.61,70.6,21.15,12.9,59.31-7.1,65.61,5,1.12,2.13-.2,2.72-.49,9.18-.87,20,10.77,32.12,6.1,36.6-2.24,2.15-5.39-.18-8.72,2.81s-3.34,8.26-3.32,10.33c.06,9,5.78,12.5,3.66,16.89-1.33,2.75-5.09,4.51-7.4,3.66-3.21-1.17-1.74-6.65-5.5-8.88s-8.23,1.21-10.23-1.24a3.84,3.84,0,0,1-.47-3.58c1.32-3.52,7.56-2.09,10-4.91,3.67-4.3-1.14-18.94-11.83-25.15-11.48-6.66-29.37-3.39-34.47,7.06a19,19,0,0,0,.05,15.91c2.5,5,6,5.07,7.55,9.66,1.85,5.48.12,13.39-4.75,15.34a7.68,7.68,0,0,1-6.93-.78c-4.21-2.93-1.54-8.46-5.29-11.76a4.07,4.07,0,0,0-1-.67c-4.49-2.09-8.59-1.14-13.72-.5-9.52,1.19-13.41-1.27-14.84,1.14s1.73,6.47-.31,8.52a3.75,3.75,0,0,1-2.49,1.09,3.08,3.08,0,0,1-1.67-.52c-2.1-1.55,1.6-7.07-.31-9.76-2.38-3.37-11.84.13-12.61-2-.27-.74.66-1.69.83-1.86,2.58-2.62,7.13.84,11.21-1.51a7.76,7.76,0,0,0,3.43-4.93,8.46,8.46,0,0,0-1.53-6.18,14.33,14.33,0,0,0-8-5.34c-11.88-3.16-23.91,26.26-42.7,27.53-17.88,1.22-26.94-22.35-39.42-19.64-9.83,2.13-15,16.92-17.86,29.06-2,8.24-7.86,14.69-15.36,16.61-10.69,2.75-21.64-4.48-24.5-12.45s3.72-13.38,15.36-34.89c16-29.5,12.69-36.42,24.92-46.09,13.72-10.85,30.24-11.93,32.39-12,14.31-.76,18.83,4.78,27,2.9,8.73-2,19.5-12,27-49-3.67.77-7.05.68-9.13-1.24-11.94-11,17.63-83.52,61.46-89.7a46.82,46.82,0,0,1,17,.83L287.38,334.5Q286.75,341.36,286.13,348.2Z"/><path class="cls-22" d="M181.48,430.63c-21.12,5.79-32.89,22.68-34.77,20.92-1.08-1,2.44-6.88,5.91-10.95,9.41-11,22.4-13.49,27.2-14.33,16.15-2.82,30.22,2.11,30.11,3.12S197.12,426.34,181.48,430.63Z"/><path class="cls-22" d="M305.55,286.33c.75,1.81-35.2,11.54-51.39,39.08-4.62,7.85-7.95,13.52-9.66,22.12-2.35,11.83-.25,22.28-4.83,24.13a5.18,5.18,0,0,1-5-.93c-8.42-7.37,9.13-56.3,45.78-76.62C293.39,287,305.12,285.32,305.55,286.33Z"/><path class="cls-22" d="M366.74,429.07c-.68.28-1.72-3.62-5-5.65-2.57-1.61-4.82-1-13.29.41-8.64,1.44-14.51,2.17-21.18,1.87-2.4-.11-4.09-.32-4.1-.52,0-.48,9.79.11,22-2.54,2-.44,3.34-.8,5.82-1.14,5.83-.82,11.49-1.6,14.32,1.45C367.42,425.18,367.37,428.82,366.74,429.07Z"/><path class="cls-22" d="M282.71,446c-4.93,1.2-5.34,5.83-8.31,6.12-5,.49-7.52-12.26-13.39-12.35-4.11-.07-5.32,6.12-10.49,6.23-4.36.09-8.1-4.22-7.78-4.78s2.92,1.75,7.06,1.77c5.42,0,6.29-3.72,10.59-3.74,6.05,0,7.24,7.39,13.7,7.32,3.17,0,4.23-1.84,9-1.63,3.15.14,5.72,1.07,5.69,1.24S285.83,445.23,282.71,446Z"/><path class="cls-22" d="M235.94,481.29c-13.89,14.08-22.26,15.54-27.41,14-4.3-1.27-6.18-4.55-15.57-10.43a102.53,102.53,0,0,0-13.24-7,58.81,58.81,0,0,1,10.9,2.8c11.21,4.05,14.36,9.07,20.56,10.59C216.18,492.49,224,491.65,235.94,481.29Z"/><path class="cls-22" d="M149.6,516.71a17.14,17.14,0,0,1-24.85,3.83,15.89,15.89,0,0,1-5.53-7.4c-2.08-6.12.7-11.68,2.41-15.11,1.82-3.63,4.28-6.56,4.75-6.3.82.45-6.48,9.41-3.73,17.59,1.7,5.08,6.51,7.56,7.86,8.26C139.33,522.12,148.59,517.26,149.6,516.71Z"/><path class="cls-22" d="M306.48,505.69a5.9,5.9,0,0,1-4.88-2c.07-.17,2,1.16,4.57.72a6.21,6.21,0,0,0,3.53-1.86c2.63-3.14-.24-9.06.31-9.24s2.67,2.79,2.18,6.23C311.77,502.53,309.36,505.4,306.48,505.69Z"/><path class="cls-22" d="M361.1,502.08a3.76,3.76,0,0,1-3.1-1.25,6.17,6.17,0,0,0,2.9.46,4,4,0,0,0,2.25-1.19c1.67-2-.16-5.76.2-5.87s1.7,1.77,1.38,4A4.52,4.52,0,0,1,361.1,502.08Z"/><path class="cls-22" d="M342.74,490.86a2.62,2.62,0,0,1,.87-2.16,4.21,4.21,0,0,0-.32,2,2.76,2.76,0,0,0,.83,1.57c1.38,1.16,4-.11,4.09.13a3,3,0,0,1-2.76,1A3.16,3.16,0,0,1,342.74,490.86Z"/></g></g></svg>